# Blender 4.1.1
# www.blender.org
mtllib rock.mtl
o RockC
v 0.695161 0.407363 1.322230
v 0.256775 1.545638 1.384806
v -0.430352 0.958162 -1.437682
v -0.934443 -0.386195 0.373236
v -1.439849 0.569863 0.418605
v 0.565102 -0.788120 -1.183683
v 1.358228 -0.936913 0.825250
v 1.788288 0.046102 0.768148
v -0.659729 1.785068 -1.092954
v -0.813229 -0.689140 0.159585
v 0.172651 -0.800673 1.221789
v 0.868716 -0.941154 0.993626
v 1.369537 -1.042043 0.460888
v 0.820284 -0.990450 -0.180753
v 1.536439 -0.608085 -0.004411
v 1.068889 1.181977 -0.624030
v 0.710199 1.698323 -0.761917
v 0.969234 1.635832 -0.640927
v 1.829823 -0.064811 -0.679531
v 1.022339 0.946845 -1.028932
v -0.209955 2.093212 -1.184164
v 0.750757 0.799329 -1.415738
v 1.454759 -0.107391 -1.129866
v 1.056575 -0.305217 -1.308371
v 0.422458 1.147933 -1.488375
v -0.089557 1.753580 -1.614132
v -0.371003 1.629479 -1.599611
v -0.381224 1.360061 -1.549597
v -0.068348 -0.787227 -0.975043
v -1.025544 0.216323 -0.739881
v -0.636633 -0.706377 -0.624055
v -1.281660 0.680879 -0.873863
v -1.640000 1.170148 -0.423132
v -1.601661 0.893287 -0.214869
v -1.281003 1.919310 0.565073
v -1.708960 2.410943 -0.196954
v -0.623462 2.861632 0.321233
v -1.359010 2.635890 0.032684
v -1.700399 2.273624 -0.401268
v -1.525163 2.161359 -0.614109
v -0.034211 3.094036 0.178008
v -0.751059 2.599570 -0.628056
v 0.284143 3.053986 0.052628
v -0.083960 3.010931 -0.681046
v 0.088864 2.273005 1.236825
v 0.466068 2.067950 1.218117
v 0.831619 1.984876 0.988247
v 1.132509 1.163718 0.901108
v 1.446727 0.405334 1.055667
v 0.819529 2.435807 0.254244
v 1.936652 0.083815 -0.174390
v 0.959101 2.078685 -0.049637
v 1.146197 1.642014 -0.443873
v 1.509137 0.986703 -0.330108
v -1.011311 0.012852 0.807101
v -1.171981 0.504872 1.003463
v -0.643544 0.095670 1.279378
v -0.920788 1.223580 1.148414
v -0.140522 -0.130888 1.506125
v -0.678549 1.817476 1.205078
v 0.051351 0.248903 1.494457
v 0.086967 1.316110 1.380517
v -0.215550 2.975732 -0.684205
v -0.091302 2.906409 -0.798824
vn -0.6956 0.0050 -0.7184
vn -0.5085 0.1171 -0.8531
vn -0.6116 0.0841 -0.7867
vn -0.4454 -0.3543 -0.8222
vn -0.4806 -0.3656 -0.7971
vn -0.3884 -0.4466 -0.8060
vn -0.1572 0.8154 -0.5571
vn -0.3239 0.8009 -0.5037
vn -0.1513 0.8175 -0.5558
vn 0.4612 -0.1796 0.8689
vn 0.3631 -0.1808 0.9140
vn 0.5175 -0.1778 0.8370
vn -0.0731 -0.9902 0.1188
vn 0.1041 -0.9547 0.2787
vn -0.0512 -0.9889 0.1391
vn 0.9248 -0.3710 0.0842
vn 0.9606 -0.2577 0.1042
vn 0.8786 -0.4776 -0.0040
vn 0.5068 -0.7869 -0.3521
vn 0.5059 -0.7553 -0.4167
vn 0.5017 -0.7150 -0.4869
vn 0.8616 -0.5065 -0.0332
vn 0.8797 -0.4753 0.0159
vn 0.6828 0.1641 -0.7119
vn 0.6040 0.2006 -0.7714
vn 0.6398 0.1846 -0.7460
vn -0.6679 0.3956 0.6304
vn 0.9400 0.3096 0.1434
vn 0.9269 0.3514 0.1318
vn 0.9568 0.2544 0.1405
vn 0.8872 0.4109 0.2100
vn 0.8583 0.4572 0.2329
vn 0.8823 0.4432 0.1585
vn -0.1854 -0.9825 -0.0202
vn -0.1816 -0.9828 -0.0331
vn -0.1348 -0.9864 -0.0937
vn -0.3433 0.7972 -0.4967
vn -0.4455 0.7726 -0.4524
vn 0.0480 0.9939 -0.0989
vn 0.0850 0.9913 -0.1008
vn -0.1908 0.9781 -0.0836
vn -0.0149 0.1854 0.9826
vn -0.1399 0.1663 0.9761
vn 0.1751 0.2349 0.9561
vn 0.3118 -0.1869 0.9316
vn 0.2971 -0.1898 0.9358
vn 0.3141 -0.1864 0.9309
vn 0.4729 0.7149 0.5151
vn 0.4542 0.6586 0.5999
vn 0.4745 0.7437 0.4709
vn 0.4815 0.7055 -0.5201
vn 0.4644 0.7127 -0.5258
vn 0.4265 0.7274 -0.5375
vn -0.5841 -0.6040 0.5422
vn -0.6470 -0.5337 0.5445
vn -0.6095 -0.5770 0.5437
vn -0.8005 0.1372 0.5834
vn -0.6933 0.2172 0.6872
vn -0.7778 0.1154 0.6179
vn -0.1822 -0.9820 0.0487
vn -0.1750 -0.9832 0.0522
vn -0.1743 -0.9833 0.0526
vn 0.4000 0.0217 -0.9163
vn 0.5681 -0.7342 -0.3718
vn 0.5703 -0.7132 -0.4076
vn 0.5681 -0.7345 -0.3713
vn -0.3710 0.4286 -0.8238
vn -0.3651 0.4435 -0.8185
vn -0.4303 0.4228 -0.7976
vn -0.9129 -0.3748 -0.1618
vn -0.8953 -0.4016 -0.1929
vn -0.9276 -0.3492 -0.1325
vn -0.6626 -0.4541 0.5956
vn -0.6394 -0.4985 0.5853
vn -0.5714 -0.6077 0.5515
vn -0.1654 0.1468 0.9752
vn -0.1281 0.1475 0.9807
vn -0.0614 -0.9813 -0.1823
vn -0.1343 -0.9857 -0.1020
vn 0.8776 0.4683 -0.1022
vn 0.8009 0.4190 0.4279
vn 0.8819 0.4446 0.1566
vn 0.3213 -0.1808 0.9296
vn -0.4075 -0.3129 -0.8579
vn -0.5302 -0.3219 -0.7843
vn -0.8803 -0.3569 -0.3124
vn -0.8366 -0.4880 -0.2489
vn -0.8635 -0.4543 -0.2189
vn -0.7935 -0.0252 -0.6080
vn -0.7794 -0.0303 -0.6258
vn -0.1701 -0.9839 0.0546
vn 0.3535 -0.1967 0.9145
vn 0.4167 -0.1832 0.8904
vn 0.2874 -0.2096 0.9346
vn 0.2651 -0.2136 0.9403
vn 0.3282 -0.1836 0.9266
vn 0.3639 0.5583 0.7456
vn 0.5030 0.3091 -0.8071
vn 0.6856 0.4841 -0.5438
vn 0.6658 0.4229 -0.6147
vn 0.5340 0.6811 -0.5009
vn -0.8451 -0.4597 0.2731
vn -0.8457 -0.4436 0.2969
vn -0.8457 -0.4329 0.3121
vn -0.8449 -0.4121 0.3412
vn -0.5353 -0.6562 0.5319
vn -0.7239 -0.5669 0.3932
vn -0.5389 -0.6483 0.5380
vn -0.8587 0.1278 0.4963
vn -0.8773 0.2206 0.4263
vn -0.9983 -0.0575 0.0111
vn -0.9985 -0.0546 -0.0052
vn -0.9941 -0.0702 0.0821
vn -0.9120 -0.0262 0.4094
vn -0.8880 -0.0682 0.4547
vn -0.9378 0.0302 0.3459
vn -0.9936 -0.0713 0.0881
vn -0.9549 0.0814 0.2855
vn 0.5219 0.0871 0.8486
vn 0.5152 0.1037 0.8508
vn 0.4686 0.1863 0.8635
vn 0.4293 0.2370 0.8715
vn 0.0837 -0.0079 0.9965
vn 0.2353 0.0954 0.9672
vn 0.2048 0.0745 0.9760
vn 0.0322 -0.0425 0.9986
vn 0.5471 0.1125 0.8294
vn 0.3181 0.3141 0.8945
vn -0.1484 -0.9878 0.0476
vn 0.9114 -0.3913 0.1278
vn 0.5666 -0.7446 -0.3530
vn 0.5054 -0.8118 -0.2924
vn 0.7639 0.5930 -0.2545
vn 0.6467 0.5887 -0.4849
vn 0.6555 0.5189 -0.5487
vn 0.4346 0.0620 -0.8985
vn 0.7349 0.1366 -0.6643
vn 0.6847 0.3777 -0.6234
vn 0.6610 0.4178 -0.6234
vn 0.6312 0.4652 -0.6206
vn 0.7829 0.4946 -0.3773
vn 0.7274 0.4664 -0.5034
vn 0.7097 0.4570 -0.5362
vn 0.6252 0.4111 -0.6634
vn 0.8824 0.3670 -0.2946
vn 0.7039 0.3480 -0.6192
vn 0.7032 0.3478 -0.6201
vn 0.5530 -0.6852 -0.4741
vn 0.0168 -0.2204 -0.9753
vn 0.0073 -0.1779 -0.9840
vn -0.0109 -0.2120 -0.9772
vn -0.0629 -0.1423 -0.9878
vn 0.0319 -0.1482 -0.9884
vn -0.1224 -0.1295 -0.9840
vn -0.2986 -0.3019 -0.9054
vn -0.3375 0.6904 -0.6399
vn -0.4408 0.6790 -0.5870
vn -0.4867 0.6706 -0.5598
vn -0.5529 0.6543 -0.5160
vn -0.2722 0.4538 -0.8485
vn -0.4132 0.4469 -0.7934
vn -0.9452 -0.3132 -0.0922
vn -0.8492 -0.5084 -0.1427
vn -0.8842 -0.4669 -0.0125
vn -0.8210 -0.5255 -0.2234
vn 0.4478 0.7847 0.4286
vn 0.4505 0.7670 0.4570
vn -0.4664 0.5520 0.6912
vn -0.4450 0.5024 0.7414
vn -0.5227 0.5362 0.6627
vn -0.4720 0.5840 0.6605
vn -0.3890 0.6071 0.6929
vn -0.1546 0.7720 0.6166
vn -0.3289 0.1946 0.9241
vn -0.3208 0.1399 0.9368
vn -0.3344 0.0844 0.9386
vn -0.2499 0.0525 0.9669
vn -0.2791 0.0221 0.9600
vn -0.4709 -0.0133 0.8821
vn -0.2243 -0.0015 0.9745
vn 0.6512 0.4581 -0.6050
vn 0.7395 0.3622 -0.5674
vn 0.5776 0.6753 -0.4586
vn -0.1827 0.7410 -0.6462
vn -0.2559 0.9635 -0.0784
vn -0.3961 0.8967 -0.1978
vn -0.4099 0.9059 -0.1062
vn -0.5742 0.8187 0.0084
vn -0.3367 0.9328 0.1285
vn -0.2969 0.9288 -0.2216
vn 0.7519 0.5182 -0.4076
vn 0.7383 0.5504 -0.3899
vn 0.7380 0.5510 -0.3895
vn 0.7325 0.5171 -0.4428
vn -0.5820 0.1701 -0.7952
vn -0.8696 -0.0411 -0.4921
vn -0.8706 -0.0441 -0.4899
vn -0.8748 -0.0562 -0.4813
vn 0.0279 -0.1819 -0.9829
vn 0.0302 -0.1835 -0.9825
vn -0.8665 -0.0328 -0.4980
vt 0.839971 0.000000
vt 0.910300 0.100577
vt 0.751228 0.172418
vt 0.873560 0.200333
vt 0.740027 0.245588
vt 0.000000 0.841438
vt 0.044635 0.891293
vt 0.011775 0.870824
vt 0.663727 0.173746
vt 0.616531 0.000000
vt 0.706774 0.112109
vt 0.405824 0.843923
vt 0.359528 0.825324
vt 0.358598 0.755642
vt 0.150530 0.002157
vt 0.200646 0.000000
vt 0.233043 0.047403
vt 0.511955 0.800004
vt 0.459525 0.877903
vt 0.283023 0.102880
vt 0.210390 0.096833
vt 0.186893 0.334107
vt 0.195971 0.231980
vt 0.233716 0.294992
vt 0.809948 0.916419
vt 0.909017 0.832557
vt 0.841239 0.932715
vt 0.000000 0.355549
vt 0.121135 0.384902
vt 0.069328 0.425934
vt 0.043679 0.245711
vt 0.098856 0.077826
vt 0.537994 0.571710
vt 0.631486 0.627780
vt 0.031323 0.786308
vt 0.143911 0.833163
vt 0.188749 0.679379
vt 0.234622 0.678901
vt 0.232157 0.786444
vt 0.560719 0.468494
vt 0.546070 0.368623
vt 0.599109 0.427809
vt 0.559953 0.203582
vt 0.468230 0.207790
vt 0.549021 0.018665
vt 0.706774 0.455239
vt 0.633406 0.571710
vt 0.216014 0.352424
vt 0.234341 0.382354
vt 0.322600 0.771795
vt 0.238053 0.647389
vt 0.322600 0.583454
vt 0.982903 0.725314
vt 0.993228 0.794803
vt 0.358998 0.654643
vt 0.932172 0.458691
vt 0.988924 0.313728
vt 0.988924 0.473635
vt 0.652455 0.806548
vt 0.609006 0.906963
vt 0.535107 0.935168
vt 0.959441 0.015854
vt 0.985121 0.102354
vt 0.721414 0.608656
vt 0.730510 0.473635
vt 0.837428 0.476815
vt 0.959915 0.640300
vt 0.929922 0.571529
vt 0.993228 0.567001
vt 0.517695 0.344841
vt 0.454449 0.436832
vt 0.652455 0.716664
vt 0.662459 0.282955
vt 0.766773 0.425616
vt 0.706774 0.378071
vt 0.771882 0.752580
vt 0.706774 0.679150
vt 0.798391 0.713590
vt 0.751348 0.880129
vt 0.781426 0.899406
vt 0.430867 0.165333
vt 0.458996 0.064235
vt 0.676603 0.553859
vt 0.290031 0.507270
vt 0.199403 0.575926
vt 0.868542 0.519313
vt 0.881874 0.661602
vt 0.256098 0.917377
vt 0.238053 0.838876
vt 0.309230 0.973890
vt 0.309230 0.771795
vt 0.652000 0.401790
vt 0.357108 0.473112
vt 0.358598 0.364675
vt 0.345575 0.670673
vt 0.322600 0.641532
vt 0.345575 0.583454
vt 0.296662 0.284242
vt 0.358598 0.299689
vt 0.350246 0.139404
vt 0.648557 0.866819
vt 0.912623 0.159114
vt 0.982159 0.248337
vt 0.838358 0.472870
vt 0.149633 0.971776
vt 0.109013 0.968108
vt 0.149633 0.902591
vt 0.082294 0.891293
vt 0.215952 0.795302
vt 0.237220 0.805115
vt 0.238053 0.891293
vt 0.697516 0.730665
vt 0.652455 0.664171
vt 0.697516 0.571710
vt 0.082294 0.891293
vt 0.082294 1.000000
vt 0.000000 0.968602
vt 0.547037 0.564046
vt 0.134620 0.583454
vt 0.106323 0.703747
vt 0.391572 0.211469
vt 0.406953 0.367734
vt 0.358598 0.281975
vt 0.077218 0.539629
vt 0.179474 0.583454
vt 0.671959 0.772389
vt 0.705379 0.856181
vt 0.652455 0.802351
vt 0.976744 0.139482
vt 0.936005 0.130154
vt 0.705379 0.730665
s 1
usemtl Rock.003
f 40/1/1 9/2/2 32/3/3
f 3/4/4 30/5/5 32/3/6
f 36/6/7 40/7/8 39/8/9
f 49/9/10 7/10/11 8/11/12
f 13/12/13 7/13/14 12/14/15
f 7/15/16 13/16/17 15/17/18
f 14/18/19 15/19/20 13/12/21
f 15/17/18 19/20/22 51/21/23
f 53/22/24 54/23/25 16/24/26
f 36/25/27 35/26/27 38/27/27
f 47/28/28 52/29/29 50/30/30
f 48/31/31 8/32/32 54/23/33
f 10/33/34 31/34/35 14/18/36
f 40/7/8 38/35/37 42/36/38
f 41/37/39 43/38/40 44/39/41
f 45/40/42 2/41/43 46/42/44
f 1/43/45 61/44/46 12/45/47
f 50/46/48 41/47/49 45/40/50
f 52/29/51 18/48/52 17/49/53
f 10/50/54 11/51/55 59/52/56
f 58/53/57 60/54/58 35/26/59
f 12/14/60 11/55/61 14/18/62
f 15/17/18 51/21/23 7/15/16
f 24/56/63 22/57/63 23/58/63
f 6/59/64 23/60/65 19/61/66
f 9/2/67 42/62/68 21/63/69
f 30/64/70 31/65/71 10/66/72
f 56/67/73 55/68/74 57/69/75
f 62/70/76 45/40/42 60/71/77
f 6/59/78 14/18/36 29/72/79
f 54/23/33 53/22/80 52/29/29
f 52/29/29 47/28/28 48/31/31
f 48/73/31 49/9/81 8/11/32
f 54/23/33 52/29/29 48/31/31
f 8/32/32 51/21/82 54/23/33
f 7/10/11 49/9/10 12/45/83
f 30/5/5 29/74/84 31/75/85
f 33/76/86 32/77/87 34/78/88
f 32/77/3 33/76/89 40/79/1
f 33/76/89 39/80/90 40/79/1
f 31/34/35 29/72/79 14/18/36
f 14/18/62 11/55/61 10/33/91
f 40/7/8 36/6/7 38/35/37
f 61/44/92 59/81/93 11/82/94
f 11/82/94 12/45/95 61/44/92
f 12/45/47 49/9/96 1/43/45
f 50/46/48 43/83/97 41/47/49
f 21/84/98 64/85/99 17/49/100
f 52/29/51 53/22/101 18/48/52
f 4/86/102 55/68/103 5/87/104
f 55/68/103 56/67/105 5/87/104
f 57/88/75 55/89/74 59/90/106
f 55/68/107 4/86/107 10/66/107
f 59/90/56 55/89/108 10/91/54
f 5/87/109 56/67/110 58/53/57
f 36/25/111 39/80/112 33/76/113
f 35/26/114 36/25/115 34/78/116
f 36/25/111 33/76/113 34/78/117
f 34/78/116 5/87/118 35/26/114
f 5/87/109 58/53/57 35/26/59
f 46/42/119 2/41/120 48/73/121
f 48/73/121 2/41/120 1/43/122
f 62/70/123 61/44/124 1/43/125
f 2/41/126 62/70/123 1/43/125
f 47/92/127 46/42/119 48/73/121
f 1/43/122 49/9/128 48/73/121
f 13/12/13 12/14/15 14/18/129
f 8/32/130 7/15/16 51/21/23
f 6/59/64 19/61/66 15/19/131
f 14/18/19 6/59/132 15/19/20
f 26/93/133 21/84/134 25/94/135
f 17/95/136 18/96/136 16/97/136
f 53/22/24 16/24/26 18/48/137
f 20/98/138 22/99/139 25/94/140
f 20/98/141 16/24/142 19/20/143
f 19/20/143 16/24/142 54/23/144
f 54/23/145 51/21/145 19/20/145
f 19/20/146 23/100/147 20/98/138
f 23/100/147 22/99/139 20/98/138
f 6/59/148 24/101/148 23/60/148
f 28/102/149 25/103/150 3/4/151
f 3/4/151 25/103/150 6/104/152
f 22/57/153 24/56/154 6/104/152
f 25/103/150 22/57/153 6/104/152
f 6/104/155 29/74/84 3/4/4
f 29/74/84 30/5/5 3/4/4
f 26/105/156 27/106/157 21/107/158
f 27/106/157 9/108/159 21/107/158
f 9/2/67 40/1/160 42/62/68
f 42/36/68 63/109/161 64/110/161 21/111/69
f 10/66/72 4/86/162 30/64/70
f 4/86/163 5/87/164 34/78/88
f 34/78/88 32/77/87 30/64/165
f 34/78/88 30/64/165 4/86/163
f 46/42/166 47/92/167 45/40/50
f 47/92/167 50/46/48 45/40/50
f 37/112/168 38/113/169 35/114/170
f 35/115/170 60/116/171 37/117/168
f 60/71/171 45/40/172 37/118/168
f 45/119/173 41/37/173 37/120/173
f 59/81/174 61/44/175 57/121/176
f 62/70/177 57/121/176 61/44/175
f 58/122/178 56/123/179 57/121/176
f 60/71/180 58/122/178 62/70/177
f 62/70/76 2/41/43 45/40/42
f 21/84/134 17/49/181 25/94/135
f 16/24/182 25/94/135 17/49/181
f 25/94/183 16/24/183 20/98/183
f 58/122/178 57/121/176 62/70/177
f 64/110/184 63/109/184 44/39/184
f 63/109/185 41/37/39 44/39/41
f 42/36/186 41/37/187 63/109/188
f 37/120/189 41/37/187 38/35/190
f 38/35/190 41/37/187 42/36/186
f 43/124/191 50/30/192 44/125/193
f 17/49/100 64/85/99 52/29/194
f 32/3/3 9/2/2 3/4/195
f 28/126/196 9/127/197 27/128/198
f 28/102/149 26/129/199 25/103/150
f 26/129/199 28/102/149 27/130/200
f 3/131/201 9/127/197 28/126/196
f 52/29/194 64/85/99 44/125/193 50/30/192
