# Blender 4.1.1
# www.blender.org
mtllib tree_4.mtl
o BroadleafBrokenA
v 0.271123 -0.132830 -0.408655
v 0.465932 -0.145986 -0.040340
v 0.381574 -0.149279 0.362252
v 0.099869 -0.146423 0.591616
v -0.252149 -0.127719 0.467665
v -0.486427 -0.123848 0.047730
v -0.413378 -0.119298 -0.355503
v -0.095139 -0.121825 -0.537974
v 0.216671 1.054088 -0.284245
v 0.296131 1.058777 -0.138858
v 0.364545 1.133684 -0.008746
v 0.269230 1.080695 0.241041
v 0.071299 1.140709 0.395259
v -0.024934 1.138723 0.361973
v -0.180461 1.069907 0.303277
v -0.069913 1.118745 -0.389962
v 0.026129 1.120873 -0.351071
v -0.362756 1.061054 0.043448
v -0.264167 1.065067 0.154039
v -0.125951 1.119277 -0.344042
v -0.299169 1.119821 -0.244782
v -0.324218 1.121534 -0.167279
v 0.222855 1.082615 0.202999
v 0.166434 1.055318 -0.213976
v 0.226555 1.058867 -0.103972
v 0.278449 1.132769 -0.005241
v 0.056571 1.138084 0.300440
v -0.016241 1.136581 0.275255
v -0.134037 1.068568 0.230580
v -0.048507 1.121422 -0.290846
v 0.022394 1.123075 -0.264253
v -0.271967 1.061871 0.033986
v -0.197372 1.064907 0.117662
v -0.229630 1.126610 -0.178611
v 0.143913 0.998876 -0.190175
v 0.239564 1.003024 -0.007983
v 0.203163 0.996234 0.180165
v 0.047927 1.009299 0.256082
v -0.114794 1.008357 0.201931
v -0.043937 0.994860 -0.259041
v -0.236110 1.000052 0.019775
v -0.194916 0.996161 -0.165766
v 0.014882 0.948694 0.004227
vn -0.0227 -0.9997 -0.0076
vn -0.0211 -0.9996 -0.0168
vn -0.0238 -0.9995 -0.0212
vn -0.0216 -0.9995 -0.0239
vn -0.0283 -0.9995 -0.0148
vn -0.0374 -0.9991 -0.0203
vn -0.0290 -0.9995 -0.0085
vn -0.0401 -0.9985 -0.0368
vn 0.3359 0.1080 -0.9357
vn 0.3714 0.1025 -0.9228
vn 0.3645 0.1075 -0.9250
vn 0.9683 0.1030 0.2277
vn 0.9277 0.0644 0.3677
vn 0.9379 0.0726 0.3393
vn 0.8811 0.0868 -0.4649
vn 0.8727 0.0903 -0.4799
vn 0.8682 0.0848 -0.4890
vn -0.7455 0.0802 0.6617
vn -0.3563 0.1404 0.9238
vn -0.4059 0.1481 0.9018
vn -0.3294 0.1371 0.9342
vn -0.9665 0.1081 -0.2327
vn -0.9445 0.1146 -0.3078
vn -0.9784 0.0979 -0.1820
vn -0.5584 0.1146 -0.8216
vn -0.6298 0.1046 -0.7697
vn -0.4984 0.1218 -0.8584
vn 0.6326 0.1308 0.7634
vn 0.6337 0.1304 0.7625
vn 0.6275 0.1326 0.7672
vn -0.0084 0.9992 -0.0393
vn -0.0083 0.9995 -0.0302
vn -0.0115 0.9996 -0.0245
vn -0.8277 0.4272 0.3639
vn -0.9389 0.3329 0.0877
vn -0.9590 0.2833 0.0056
vn 0.6266 0.1329 0.7679
vn 0.8804 0.0860 -0.4663
vn 0.1900 0.3733 -0.9081
vn 0.0786 0.4487 -0.8902
vn 0.2736 0.3139 -0.9092
vn -0.3160 0.2429 0.9171
vn -0.3473 0.2167 0.9124
vn -0.3426 0.2144 0.9147
vn 0.9727 0.1090 0.2047
vn -0.0117 0.9996 -0.0259
vn 0.1631 0.9816 0.0994
vn -0.8674 0.1189 0.4832
vn -0.8668 0.1185 0.4844
vn -0.8667 0.1184 0.4846
vn -0.9800 0.0977 -0.1735
vn -0.9833 0.1021 -0.1505
vn -0.3228 0.1360 0.9366
vn -0.3264 0.1355 0.9355
vn -0.4930 0.1224 -0.8614
vn -0.4932 0.1224 -0.8613
vn -0.0009 0.9932 0.1165
vn 0.0070 0.9883 0.1522
vn 0.6860 0.4515 -0.5706
vn 0.6359 0.5033 -0.5851
vn 0.7512 0.3928 -0.5304
vn -0.1738 0.8516 -0.4946
vn -0.0886 0.8664 -0.4915
vn -0.0291 0.8728 -0.4872
vn 0.1835 0.9803 0.0733
vn 0.1984 0.9800 0.0164
vn -0.0932 0.9748 0.2026
vn -0.0164 0.9784 0.2063
vn -0.1245 0.9717 0.2008
vn -0.1959 0.9701 -0.1430
vn 0.2147 0.9632 -0.1618
vn 0.1105 0.9924 -0.0535
vn 0.1160 0.9922 -0.0455
vn 0.3370 0.1088 -0.9352
vn -0.1723 0.9842 -0.0416
vn -0.2347 0.9687 -0.0811
vn -0.0305 0.9980 0.0552
vn -0.0457 0.9975 -0.0543
vn -0.0278 0.9860 0.1646
vn -0.2343 0.9639 -0.1264
vn 0.1293 0.9914 -0.0191
vn -0.2328 0.9717 0.0400
vn -0.0085 0.9997 -0.0212
vn -0.1255 0.9834 -0.1315
vn -0.2109 0.3402 0.9164
vn -0.1140 0.4243 0.8983
vn -0.9446 0.2725 -0.1829
vn -0.9455 0.2654 -0.1885
vn 0.7725 0.4249 -0.4719
vn -0.3953 0.3198 -0.8611
vn -0.3957 0.3213 -0.8603
vn -0.3961 0.3227 -0.8596
vn 0.3029 0.2895 -0.9080
vn 0.5154 0.2236 0.8272
vn 0.5167 0.2218 0.8269
vn 0.5133 0.2265 0.8277
vn 0.9227 0.3107 0.2283
vn 0.8858 0.3776 0.2698
vn 0.9410 0.2704 0.2033
vn -0.7746 0.4865 0.4041
vn 0.0199 0.9715 -0.2364
vn 0.1282 0.9696 -0.2085
vn 0.1963 0.9785 -0.0634
vn 0.1494 0.9846 0.0905
vn 0.0148 0.9854 0.1695
vn -0.1534 0.9767 0.1503
vn 0.8623 0.0807 -0.4999
vn -0.8676 0.1190 0.4828
vn -0.2467 0.8336 -0.4942
vn -0.0020 0.9784 0.2068
vn 0.2031 0.9587 -0.1992
vn 0.3640 0.1136 -0.9244
vn 0.7689 0.4580 -0.4461
vn -0.3948 0.3179 -0.8620
vn 0.3073 0.2914 -0.9059
vn 0.5184 0.2193 0.8265
vn 0.8535 0.4262 0.2998
vn -0.7755 0.4816 0.4083
vt 0.452935 0.623370
vt 0.408644 0.730296
vt 0.559860 0.881512
vt 0.452935 0.837222
vt 0.666786 0.837222
vt 0.711076 0.730296
vt 0.559860 0.579080
vt 0.666786 0.623370
vt 0.166069 0.887813
vt 0.166069 0.901023
vt 0.135361 0.903167
vt 0.638619 0.887813
vt 0.638619 0.911259
vt 0.559578 0.920843
vt 0.717377 0.887813
vt 0.717377 0.903287
vt 0.670804 0.911099
vt 0.369524 0.910782
vt 0.323585 0.903106
vt 0.323585 0.887813
vt 0.455917 0.914600
vt 0.402344 0.910896
vt 0.402344 0.887813
vt 0.275233 0.903016
vt 0.244827 0.902135
vt 0.244827 0.887813
vt 0.194734 0.902145
vt 0.481102 0.914748
vt 0.481102 0.887813
vt 0.166293 0.901032
vt 0.638281 0.911261
vt 0.559860 0.887813
vt 0.404459 0.911042
vt 0.165811 0.900997
vt 0.321998 0.902841
vt 0.087311 0.903287
vt 0.557850 0.920841
vt 0.087311 0.887813
vt 0.248107 0.902230
vt 0.199715 0.132736
vt 0.123278 0.136870
vt 0.182381 0.192355
vt 0.558628 0.920842
vt 0.244239 0.902118
vt 0.134699 0.221661
vt 0.080583 0.202165
vt 0.038288 0.143532
vt 0.053152 0.080186
vt 0.103782 0.048237
vt 0.167087 0.071939
s 1
usemtl GenericBark.002
f 6/1/1 7/2/2 1/3/3
f 8/4/4 1/3/3 7/2/2
f 1/3/3 2/5/5 6/1/1
f 2/5/5 3/6/6 5/7/7
f 3/6/6 4/8/8 5/7/7
f 5/7/7 6/1/1 2/5/5
f 8/9/9 16/10/10 17/11/11
f 2/12/12 11/13/13 12/14/14
f 1/15/15 9/16/16 10/17/17
f 19/18/18 18/19/18 6/20/18
f 14/21/19 15/22/20 5/23/21
f 22/24/22 21/25/23 7/26/24
f 20/27/25 16/10/26 8/9/27
f 12/14/28 13/28/29 4/29/30
f 20/27/31 30/30/32 16/10/33
f 25/17/34 36/31/35 26/13/36
f 12/14/28 4/29/30 3/32/37
f 10/17/17 2/12/38 1/15/15
f 39/33/39 29/22/40 28/21/41
f 31/11/42 30/30/43 40/34/44
f 3/32/45 2/12/12 12/14/14
f 10/17/46 24/16/47 25/17/46
f 15/22/48 6/20/49 5/23/50
f 22/24/22 6/20/51 18/19/52
f 14/21/19 4/29/53 13/28/54
f 20/27/25 7/26/55 21/25/56
f 19/18/46 32/19/57 18/19/58
f 41/35/59 32/19/60 33/18/61
f 10/17/62 26/13/63 11/13/64
f 9/36/65 31/11/66 24/36/47
f 12/14/67 26/13/68 23/37/69
f 19/18/46 29/22/70 33/18/46
f 12/14/71 27/28/72 13/28/73
f 17/11/11 1/38/74 8/9/9
f 14/21/75 27/28/72 28/21/76
f 34/39/77 21/25/78 22/24/79
f 20/27/31 34/39/77 30/30/32
f 15/22/80 28/21/76 29/22/70
f 32/19/57 22/24/79 18/19/58
f 17/11/81 30/30/32 31/11/66
f 36/40/82 43/41/83 37/42/84
f 31/11/42 35/36/85 24/36/86
f 26/13/36 37/43/87 23/37/88
f 33/18/61 39/33/89 41/35/59
f 23/37/90 38/28/91 27/28/92
f 28/21/41 38/28/93 39/33/39
f 30/30/94 42/44/95 40/34/96
f 34/39/97 41/35/98 42/44/99
f 25/17/34 35/16/100 36/31/35
f 37/42/84 43/41/83 38/45/101
f 38/45/101 43/41/83 39/46/102
f 39/46/102 43/41/83 41/47/103
f 41/47/103 43/41/83 42/48/104
f 42/48/104 43/41/83 40/49/105
f 40/49/105 43/41/83 35/50/106
f 35/50/106 43/41/83 36/40/82
f 10/17/17 11/13/107 2/12/38
f 10/17/46 9/16/65 24/16/47
f 15/22/48 19/18/108 6/20/49
f 22/24/22 7/26/24 6/20/51
f 14/21/19 5/23/21 4/29/53
f 20/27/25 8/9/27 7/26/55
f 19/18/46 33/18/46 32/19/57
f 10/17/62 25/17/109 26/13/63
f 9/36/65 17/11/81 31/11/66
f 12/14/67 11/13/110 26/13/68
f 19/18/46 15/22/80 29/22/70
f 12/14/71 23/37/111 27/28/72
f 17/11/11 9/36/112 1/38/74
f 14/21/75 13/28/73 27/28/72
f 20/27/31 21/25/78 34/39/77
f 15/22/80 14/21/75 28/21/76
f 32/19/57 34/39/77 22/24/79
f 17/11/81 16/10/33 30/30/32
f 31/11/42 40/34/44 35/36/85
f 26/13/36 36/31/35 37/43/87
f 33/18/61 29/22/113 39/33/89
f 23/37/90 37/43/114 38/28/91
f 28/21/41 27/28/115 38/28/93
f 30/30/94 34/39/116 42/44/95
f 34/39/97 32/19/117 41/35/98
f 25/17/34 24/16/118 35/16/100
